<svg version="1.1" id="Layer_1" xmlns="http://www.w3.org/2000/svg" xmlns:xlink="http://www.w3.org/1999/xlink" x="0px" y="0px"
	 width="100%" viewBox="0 0 320 208" enable-background="new 0 0 320 208" xml:space="preserve">
<path fill="#000000" opacity="1.000000" stroke="none" 
	d="
M142.342087,199.360779 
	C140.911835,200.789322 139.787140,202.027664 138.537308,203.123245 
	C133.777725,207.295517 127.741577,207.273560 123.720329,203.123230 
	C119.662422,198.935028 119.618362,192.885757 123.972427,188.296112 
	C129.469879,182.501190 135.213852,176.940369 140.837204,171.264420 
	C141.645569,170.448502 142.373932,169.553299 143.563568,168.218903 
	C137.579910,162.094894 131.756989,155.997055 125.779366,150.054871 
	C119.268059,143.582153 119.131218,138.064407 125.644478,131.611404 
	C131.543350,125.767105 137.506744,119.987953 143.987488,113.645943 
	C138.649963,108.251549 133.917023,103.184807 128.880554,98.440262 
	C119.906723,89.986580 116.649834,84.553619 128.825912,73.509872 
	C136.092850,66.918732 142.738861,59.646427 149.736694,52.754147 
	C155.728363,46.852863 166.318924,46.766945 172.277664,52.633015 
	C180.821152,61.043652 189.306107,69.515839 197.700745,78.074844 
	C203.325455,83.809669 203.250824,89.360962 197.544937,95.091682 
	C191.458221,101.204895 185.231537,107.178757 178.574554,113.694443 
	C184.836899,120.038223 190.471405,125.860336 196.233078,131.553772 
	C203.478775,138.713638 203.643219,143.985931 196.341660,151.052185 
	C190.505630,156.700150 184.444626,162.115631 177.657410,168.399078 
	C184.911285,175.418762 190.967957,181.298676 197.048752,187.153519 
	C199.006775,189.038788 200.714645,191.123154 201.161697,193.847092 
	C201.899399,198.342087 200.550919,202.125381 196.577438,204.625092 
	C192.406799,207.248795 187.545288,206.836304 183.718765,203.173447 
	C177.344528,197.071823 171.039795,190.879883 165.022385,184.430588 
	C161.957794,181.146057 159.908676,181.382874 157.007858,184.560730 
	C152.409485,189.598267 147.416321,194.275421 142.342087,199.360779 
M175.118774,87.749466 
	C175.714798,86.789635 175.730438,85.790695 174.944809,84.996231 
	C170.420288,80.420860 165.855652,75.885178 160.671204,70.702911 
	C156.180359,75.395645 152.093018,79.727394 147.931839,83.987000 
	C146.104614,85.857437 147.044525,87.186569 148.506546,88.599388 
	C151.977890,91.953934 155.550034,95.220253 158.811508,98.770226 
	C161.017273,101.171112 162.619232,100.654488 164.559586,98.618874 
	C167.889359,95.125626 171.322357,91.730751 175.118774,87.749466 
M147.941910,142.850540 
	C151.616379,146.471024 155.368515,150.017151 158.934143,153.741837 
	C160.857162,155.750656 162.354584,155.855164 164.288696,153.780426 
	C167.464584,150.373627 170.801697,147.115921 174.105408,143.830124 
	C175.420227,142.522430 176.258194,141.217743 174.700943,139.556595 
	C170.406036,134.975128 166.103531,130.400818 160.912292,124.874359 
	C155.927048,130.230774 151.755524,134.708023 147.590652,139.191452 
	C146.635147,140.220047 146.769867,141.288544 147.941910,142.850540 
z"/>
<path fill="#000000" opacity="1.000000" stroke="none" 
	d="
M104.935165,83.015709 
	C102.093521,85.742096 103.553543,87.634392 105.503944,89.566437 
	C110.708153,94.721649 115.921638,99.869972 121.017883,105.131027 
	C126.510567,110.801346 126.504242,116.018013 120.998001,121.678589 
	C115.774658,127.048355 110.528725,132.406448 105.070000,137.532501 
	C102.419403,140.021545 102.800377,141.810455 105.152702,144.105469 
	C110.511215,149.333435 115.812355,154.625229 120.994598,160.027512 
	C126.542015,165.810501 126.609718,170.978287 121.111458,176.594116 
	C112.492798,185.397064 103.786140,194.116669 94.984306,202.736328 
	C90.272156,207.350952 83.837425,207.414291 79.826218,203.223480 
	C75.588425,198.795883 75.574326,192.773575 80.178642,188.029922 
	C86.425034,181.594498 92.907608,175.388321 99.361107,169.012466 
	C97.631279,165.191330 94.521027,163.105865 92.064140,160.508286 
	C88.519012,156.760132 84.690880,153.279160 81.156075,149.521851 
	C75.154320,143.142303 75.267387,137.872803 81.473869,131.773468 
	C87.506546,125.844971 93.630676,120.009514 100.869125,113.018089 
	C94.196083,106.808403 88.152519,101.369652 82.321571,95.711777 
	C74.942108,88.551346 75.002876,83.352921 82.175400,76.228836 
	C90.206696,68.251778 98.136757,60.171631 106.237617,52.266220 
	C111.481033,47.149307 118.951622,47.543388 122.790321,52.893791 
	C125.932480,57.273354 125.506012,62.145302 121.355995,66.443710 
	C116.037521,71.952370 110.584335,77.330971 104.935165,83.015709 
z"/>
<path fill="#000000" opacity="1.000000" stroke="none" 
	d="
M224.306870,60.693150 
	C229.963760,66.367393 235.381958,71.780212 240.778534,77.214523 
	C247.365021,83.847076 247.461060,89.172943 240.866196,95.635742 
	C234.932144,101.450958 228.812943,107.077255 222.233856,113.299019 
	C228.670868,119.834808 234.201981,125.508812 239.797653,131.118439 
	C247.806000,139.146744 247.734360,143.510910 239.603104,151.624329 
	C234.090317,157.124985 228.734497,162.782928 222.487015,169.216492 
	C228.413971,174.920776 234.073654,180.248856 239.597260,185.714462 
	C246.285126,192.332138 247.151917,198.686157 242.186905,203.402649 
	C237.305603,208.039627 231.492218,207.063858 224.832062,200.426147 
	C217.284500,192.903961 209.738815,185.379410 202.252060,177.796890 
	C195.865219,171.328339 195.904068,166.197464 202.280823,159.736923 
	C207.308578,154.643112 212.236084,149.440445 217.454117,144.548492 
	C220.152054,142.019150 219.652145,140.299774 217.289047,138.016266 
	C212.021988,132.926559 206.879562,127.705162 201.769135,122.456825 
	C196.032516,116.565399 195.997360,111.351280 201.681519,105.499542 
	C206.785522,100.245033 211.898041,94.988731 217.227753,89.967758 
	C219.927612,87.424301 219.939255,85.542488 217.292221,83.004944 
	C211.885269,77.821640 206.622498,72.483734 201.407623,67.105461 
	C196.339569,61.878601 195.981750,55.955132 200.289032,51.605003 
	C204.498718,47.353447 211.248840,47.789249 216.279465,52.682091 
	C218.904678,55.235394 221.467560,57.852798 224.306870,60.693150 
z"/>
</svg>